# xmcd
#
# Track frame offsets:
#	183
#	13933
#	27718
#	41358
#	54808
#	73983
#	88408
#	99920
#	112608
#	126995
#	142745
#	155933
#	168945
#	183420
#	195145
#	212060
#
# Disc length: 3010
#
# Revision: 1
# Processed by: cddbd v1.5.1PL0 Copyright (c) Steve Scherf et al.
# Submitted via: EasyCDDAExtractor 4.5.0.2
# Normalized: r0:TDELIM( - )
#
DISCID=d70bc010
DTITLE=x - Grand Prix Der Volksmusik 1989
DYEAR=1989
DGENRE=Volksmusik und Schlager
TTITLE0=Edith Prock - Hörst du die Glocken von Stella Maria
TTITLE1=Herzblatt - Auf Dem Berg Sind Alle Gleich
TTITLE2=Bianca - Die Rosen Der Madonna
TTITLE3=Schari and Wari - So Wiast Bist, Bist Grad Recht
TTITLE4=Katharina - La Direttissima
TTITLE5=Die Kirmesmusikanten - Auf Unserem Bauernhof
TTITLE6=Die 3 Z'widern - Warum Ist Der Knödel Rund
TTITLE7=Salvo - Losed Si Frau Küenzi
TTITLE8=Original Naabtal Duo - Schutzengel, Bleib Bei Mir
TTITLE9=Marianne and Michael - Wenn Berge Träumen
TTITLE10=Mariella - In Der Strasse Der Armen
TTITLE11=Stefan Mross - Heimwehmelodie
TTITLE12=Sepp Vviellechner and Maxl Graf - Kaum Schau I Auf D'Uhr, Is Scho Herbst
TTITLE13=Die Kaiserlich Böhmischen - Mensch Meier, A Bayer
TTITLE14=Das Golden Herz - Das Kufsteiner Lied
TTITLE15=Patrick Lindner - Die Kloane Tür Zum Paradies
EXTD=CD von I.B.\n
EXTT0=
EXTT1=
EXTT2=
EXTT3=
EXTT4=
EXTT5=
EXTT6=
EXTT7=
EXTT8=
EXTT9=
EXTT10=
EXTT11=
EXTT12=
EXTT13=
EXTT14=
EXTT15=
PLAYORDER=
